<?xml version="1.0" encoding="UTF-8"?>
<svg version="1.1" viewBox="0 0 1112 1112" width="278" height="278" xmlns="http://www.w3.org/2000/svg">
<path transform="translate(0)" d="m0 0h1112v1112h-1112z" fill="#FDFDFD"/>
<path transform="translate(542,231)" d="m0 0h24l26 3 16 4 30 10 29 14 22 14 14 10 13 11 11 9 22 22 8 10 11 14 12 17 12 19 8 14 11 23 9 24 8 25 6 28 3 25 1 16v14l-2 28-6 32-7 23-9 22-8 16-9 16-8 11-3 4h-2l1-8 5-26 3-26 1-16v-22l-1-23-5-34-5-20-7-23-12-30-12-23-7-11-13-19-9-11-11-12-4-5-8-7-12-11-12-9-20-13-22-11-27-9-9-2-19-3-34 1-24 5 7 23 4 14 5 1h33l25 5 27 10 12 7 13 8 12 9 10 9 8 7 8 8 9 11 6 7 18 27 12 23 9 19 7 20 5 19 5 23 3 32-1 29-2 19-6 28-11 30-7 14-8 13-9 14-11 12-7 8-4 3 1-5 7-18 8-28 4-21 3-29v-27l-2-25-4-23-8-27-10-24-11-21-13-19-12-14-10-10-2-1v-2l-4-2-13-10-15-9-22-9-12-3-27-3 8 67 1 10 2 49v48l-2 43-3 33-7 55-4 16-7 14-11 12-10 8-16 8-11 4-16 3-10 1h-14l-17-1-29-6-29-10-17-8-14-8-17-12-12-9-8-7v-2l-4-2-8-8-9-11-7-9-12-21-8-23-2-14v-16l4-16 8-16 9-10 10-8 14-8 19-6 25-3 24 1 19 3 19 5 19 7 15 6 21 12 16 11 11 9 13 11 7 7 9 11 2 2 2-31 1-32v-21l-1-37-4-51-7-49-11-54-14-49-10-29-12-31-12-26-5-12 4-4 28-14 16-6 16-4 19-3z" fill="#010101"/>
<path transform="translate(470,98)" d="m0 0 33 1 35 4 29 6 22 6 20 6 24 10 33 16 17 10 24 16 16 12 13 11 12 11 8 8h-3l-14-8-15-8-27-12-29-10-21-6-21-5-33-5-26-2h-41l-23 2-27 4-29 6-24 7-15 5-12 5-16 7-34 17-26 17-12 9-14 11-11 9-13 13-8 7-14 15-9 11-6 7-13 18-10 15-16 28-11 22-8 20-12 36-6 24-6 37-2 26v41l4 38 5 28 5 19 7 24 12 31 13 27 8 14 15 24 21 28 11 13 9 9 2 4-5-2-14-10-13-9-10-9-11-9-12-11-7-6-7-8-11-12-10-12-7-9-13-18-11-18-8-13-11-22-12-28-10-30-7-28-6-35-3-39v-12l1-31 5-37 7-31 6-21 8-23 16-36 13-23 10-16 10-14 7-10 9-11 11-12 8-10 14-14 8-7 10-9 11-9 18-13 24-16 27-14 23-11 26-10 32-9 23-5 33-5z" fill="#010101"/>
<path transform="translate(793,262)" d="m0 0 6 2 11 7 12 8 13 10 17 14 11 9 25 25 9 11 14 17 10 14 14 22 15 28 9 19 10 26 5 15 8 31 5 26 4 38v45l-3 32-7 36-7 27-7 21-11 27-14 28-12 20-10 15-12 16-13 16-7 8-35 35-12 9-12 10-12 8-17 11-16 9-25 13-19 8-24 9-23 7-39 8-22 3-30 2h-22l-31-2-22-3-31-6-31-9-31-12-20-9-29-16-15-10-19-13-15-12-11-9-5-4v-2l7 2 19 10 14 6 23 9 29 9 33 7 21 3 32 3h32l34-3 31-5 32-8 36-12 23-10 24-12 23-14 19-13 14-11 14-12 8-7 18-18h2l2-4 8-9 11-14 9-11 19-29 14-25 9-19 11-27 10-32 5-21 4-23 3-23 1-21v-30l-2-28-4-28-5-23-6-22-7-22-8-20-9-20-12-23-12-19-8-12-13-17-13-16-7-8-15-15z" fill="#010101"/>
</svg>
